<svg xmlns="http://www.w3.org/2000/svg" xmlns:xlink="http://www.w3.org/1999/xlink" viewBox="0 0 124.42 72.03"><defs><style>.cls-1{fill:url(#linear-gradient);}.cls-2{fill:url(#linear-gradient-2);}.cls-3{fill:none;}.cls-4{fill:url(#linear-gradient-3);}.cls-5{fill:url(#linear-gradient-4);}.cls-6{fill:url(#linear-gradient-5);}.cls-7{fill:#fff;}</style><linearGradient id="linear-gradient" x1="30.64" y1="59.97" x2="0.51" y2="57.16" gradientUnits="userSpaceOnUse"><stop offset="0" stop-color="#fece30"/><stop offset="1" stop-color="#f05123"/></linearGradient><linearGradient id="linear-gradient-2" x1="84.01" y1="-1.28" x2="8.94" y2="63.06" gradientUnits="userSpaceOnUse"><stop offset="0" stop-color="#f47721"/><stop offset="1" stop-color="#cb2827"/></linearGradient><linearGradient id="linear-gradient-3" x1="53.14" y1="50.75" x2="73.79" y2="50.75" gradientUnits="userSpaceOnUse"><stop offset="0" stop-color="#fccf2f"/><stop offset="1" stop-color="#f15822"/></linearGradient><linearGradient id="linear-gradient-4" x1="65.19" y1="27.89" x2="124.42" y2="27.89" xlink:href="#linear-gradient-2"/><linearGradient id="linear-gradient-5" x1="62.46" y1="40.32" x2="108.29" y2="40.32" gradientUnits="userSpaceOnUse"><stop offset="0" stop-color="#f05123"/><stop offset="1" stop-color="#fece30"/></linearGradient></defs><g id="Layer_2" data-name="Layer 2"><g id="Layer_1-2" data-name="Layer 1"><path class="cls-1" d="M33.15,52.22a3.59,3.59,0,0,1-1.61,2.06,3.48,3.48,0,0,1-2.81.43L4.39,48.52,0,63.21l18,4.57C29.24,63.23,32.32,56,33.15,52.22Z"/><path class="cls-2" d="M46.45,0,33.21,52.05a1.15,1.15,0,0,1-.06.17C32.32,56,29.24,63.23,18,67.78l7,1.78a18.6,18.6,0,0,0,7.56.37,20,20,0,0,0,6.87-2.45,18.94,18.94,0,0,0,5.49-4.86,18.38,18.38,0,0,0,3.27-6.77l13.24-52Z"/><path class="cls-3" d="M108.29,36.46l.06-.17Z"/><path class="cls-4" d="M62.46,29.46,53.14,71.55l.71.16A13.93,13.93,0,0,0,70.43,61.12l3.22-14.48.14,0C72.54,37.65,65.22,31.49,62.46,29.46Z"/><path d="M108.53,35.74a5.05,5.05,0,0,1-.18.55,11.76,11.76,0,0,0,.71-3Z"/><path class="cls-5" d="M124.1,26.21a18.59,18.59,0,0,0-7.36-11.48,17.56,17.56,0,0,0-6.56-2.89L68.31,2.69,65.19,17l41.87,9.15a3.37,3.37,0,0,1,2.16,1.51,3.29,3.29,0,0,1,.5,2.64l-.66,3a11.76,11.76,0,0,1-.71,3l-.06.17c-1.32,3.48-4.67,8.62-12.9,14.93l5.86,1.28a17.52,17.52,0,0,0,7.17.11,18.44,18.44,0,0,0,11.49-7.41,17.11,17.11,0,0,0,2.88-6.51l1.2-5.48A17.52,17.52,0,0,0,124.1,26.21Z"/><path class="cls-6" d="M108.29,36.46A3.38,3.38,0,0,1,107,37.94a3.42,3.42,0,0,1-2.59.46L62.5,29.25l0,.21c2.76,2,10.08,8.19,11.33,17.21l21.6,4.72C103.62,45.08,107,39.94,108.29,36.46Z"/><circle class="cls-7" cx="86.69" cy="63.99" r="6.97"/></g></g></svg>