<svg xmlns="http://www.w3.org/2000/svg" xmlns:xlink="http://www.w3.org/1999/xlink" viewBox="0 0 168.95 180.51"><defs><style>.cls-1{isolation:isolate;}.cls-2{fill:url(#linear-gradient);}.cls-3{fill:url(#linear-gradient-2);}.cls-4{fill:url(#linear-gradient-3);}.cls-5{fill:url(#linear-gradient-4);}.cls-6{fill:url(#linear-gradient-5);}.cls-7{fill:url(#linear-gradient-6);}.cls-8{fill:url(#linear-gradient-7);}.cls-9{fill:url(#linear-gradient-8);}.cls-10{fill:url(#linear-gradient-9);}.cls-11{fill:url(#linear-gradient-10);}.cls-12{fill:url(#linear-gradient-11);}.cls-13{fill:url(#linear-gradient-12);}.cls-14{fill:url(#linear-gradient-13);}.cls-15{fill:url(#linear-gradient-14);}.cls-16{fill:url(#linear-gradient-15);}.cls-17{fill:url(#linear-gradient-16);}.cls-18{fill:url(#linear-gradient-17);}.cls-19{fill:url(#linear-gradient-18);}.cls-20{fill:url(#linear-gradient-19);}.cls-21{fill:url(#linear-gradient-20);}.cls-22{fill:url(#linear-gradient-21);}.cls-23{fill:url(#linear-gradient-22);}.cls-24{fill:url(#linear-gradient-23);}.cls-25{fill:url(#linear-gradient-24);}.cls-26{fill:url(#linear-gradient-25);}.cls-27{fill:url(#linear-gradient-26);}.cls-28{fill:url(#linear-gradient-27);}.cls-29{fill:url(#linear-gradient-28);}.cls-30{fill:url(#linear-gradient-29);}.cls-31{fill:url(#linear-gradient-30);}.cls-32{fill:url(#linear-gradient-31);}.cls-33{fill:url(#linear-gradient-32);}.cls-34{fill:url(#linear-gradient-33);}.cls-35{fill:url(#linear-gradient-34);}.cls-36{fill:url(#linear-gradient-35);}.cls-37{fill:url(#linear-gradient-36);}.cls-38{fill:url(#linear-gradient-37);}.cls-39{fill:url(#linear-gradient-38);}.cls-40{fill:url(#linear-gradient-39);}.cls-41{fill:url(#linear-gradient-40);}.cls-42{fill:url(#linear-gradient-41);}.cls-43{fill:url(#linear-gradient-42);}.cls-44{fill:url(#linear-gradient-43);}.cls-45{fill:url(#linear-gradient-44);}.cls-46{fill:url(#linear-gradient-45);}.cls-47{fill:url(#linear-gradient-46);}.cls-48{fill:url(#linear-gradient-47);}.cls-49{fill:url(#linear-gradient-48);}.cls-50{fill:url(#linear-gradient-49);}.cls-51{fill:url(#linear-gradient-50);}.cls-52{fill:url(#linear-gradient-51);}.cls-53{fill:url(#linear-gradient-52);}.cls-54{fill:url(#linear-gradient-53);}.cls-55{fill:url(#linear-gradient-54);}.cls-56{fill:url(#linear-gradient-55);}.cls-57{fill:url(#linear-gradient-56);}.cls-58{fill:url(#linear-gradient-57);}.cls-59,.cls-61,.cls-68{mix-blend-mode:screen;}.cls-60{fill:url(#linear-gradient-114);}.cls-61{opacity:0.3;fill:url(#linear-gradient-115);}.cls-62{fill:url(#linear-gradient-116);}.cls-63{fill:url(#linear-gradient-117);}.cls-64{fill:url(#linear-gradient-118);}.cls-65{fill:url(#linear-gradient-119);}.cls-66{fill:url(#linear-gradient-120);}.cls-67,.cls-68{fill:url(#linear-gradient-121);}</style><linearGradient id="linear-gradient" x1="0.92" y1="86.28" x2="142.37" y2="86.28" gradientUnits="userSpaceOnUse"><stop offset="0" stop-color="#f5af19"/><stop offset="1" stop-color="#f12711"/></linearGradient><linearGradient id="linear-gradient-2" x1="43.89" y1="46.03" x2="154.62" y2="147.31" xlink:href="#linear-gradient"/><linearGradient id="linear-gradient-3" x1="43.76" y1="46.17" x2="154.49" y2="147.46" xlink:href="#linear-gradient"/><linearGradient id="linear-gradient-4" x1="44.73" y1="45.11" x2="155.45" y2="146.4" xlink:href="#linear-gradient"/><linearGradient id="linear-gradient-5" x1="44.85" y1="44.98" x2="155.57" y2="146.27" xlink:href="#linear-gradient"/><linearGradient id="linear-gradient-6" x1="44.25" y1="45.64" x2="154.97" y2="146.93" xlink:href="#linear-gradient"/><linearGradient id="linear-gradient-7" x1="44.59" y1="45.27" x2="155.31" y2="146.55" xlink:href="#linear-gradient"/><linearGradient id="linear-gradient-8" x1="44.1" y1="45.79" x2="154.83" y2="147.08" xlink:href="#linear-gradient"/><linearGradient id="linear-gradient-9" x1="43.51" y1="46.44" x2="154.24" y2="147.73" xlink:href="#linear-gradient"/><linearGradient id="linear-gradient-10" x1="47.92" y1="41.62" x2="158.65" y2="142.91" xlink:href="#linear-gradient"/><linearGradient id="linear-gradient-11" x1="40.19" y1="50.07" x2="150.92" y2="151.36" xlink:href="#linear-gradient"/><linearGradient id="linear-gradient-12" x1="40.01" y1="50.26" x2="150.74" y2="151.55" xlink:href="#linear-gradient"/><linearGradient id="linear-gradient-13" x1="47.27" y1="42.33" x2="158" y2="143.62" xlink:href="#linear-gradient"/><linearGradient id="linear-gradient-14" x1="48.57" y1="40.91" x2="159.3" y2="142.2" xlink:href="#linear-gradient"/><linearGradient id="linear-gradient-15" x1="49.25" y1="40.16" x2="159.98" y2="141.45" xlink:href="#linear-gradient"/><linearGradient id="linear-gradient-16" x1="40.82" y1="49.38" x2="151.55" y2="150.67" xlink:href="#linear-gradient"/><linearGradient id="linear-gradient-17" x1="39.79" y1="50.5" x2="150.52" y2="151.79" xlink:href="#linear-gradient"/><linearGradient id="linear-gradient-18" x1="40.03" y1="50.25" x2="150.75" y2="151.54" xlink:href="#linear-gradient"/><linearGradient id="linear-gradient-19" x1="39.8" y1="50.5" x2="150.53" y2="151.79" xlink:href="#linear-gradient"/><linearGradient id="linear-gradient-20" x1="39.9" y1="50.39" x2="150.63" y2="151.68" xlink:href="#linear-gradient"/><linearGradient id="linear-gradient-21" x1="39.83" y1="50.47" x2="150.55" y2="151.75" xlink:href="#linear-gradient"/><linearGradient id="linear-gradient-22" x1="46.6" y1="43.07" x2="157.32" y2="144.36" xlink:href="#linear-gradient"/><linearGradient id="linear-gradient-23" x1="45.85" y1="43.88" x2="156.58" y2="145.17" xlink:href="#linear-gradient"/><linearGradient id="linear-gradient-24" x1="44.98" y1="44.83" x2="155.71" y2="146.12" xlink:href="#linear-gradient"/><linearGradient id="linear-gradient-25" x1="40.98" y1="49.21" x2="151.7" y2="150.5" xlink:href="#linear-gradient"/><linearGradient id="linear-gradient-26" x1="40.47" y1="49.76" x2="151.2" y2="151.05" xlink:href="#linear-gradient"/><linearGradient id="linear-gradient-27" x1="41.25" y1="48.91" x2="151.97" y2="150.2" xlink:href="#linear-gradient"/><linearGradient id="linear-gradient-28" x1="41.74" y1="48.37" x2="152.47" y2="149.66" xlink:href="#linear-gradient"/><linearGradient id="linear-gradient-29" x1="42.3" y1="47.77" x2="153.03" y2="149.06" xlink:href="#linear-gradient"/><linearGradient id="linear-gradient-30" x1="39.83" y1="50.46" x2="150.56" y2="151.75" xlink:href="#linear-gradient"/><linearGradient id="linear-gradient-31" x1="39.91" y1="50.38" x2="150.63" y2="151.67" xlink:href="#linear-gradient"/><linearGradient id="linear-gradient-32" x1="40.21" y1="50.05" x2="150.93" y2="151.34" xlink:href="#linear-gradient"/><linearGradient id="linear-gradient-33" x1="43.89" y1="46.03" x2="154.61" y2="147.32" xlink:href="#linear-gradient"/><linearGradient id="linear-gradient-34" x1="42.52" y1="47.53" x2="153.24" y2="148.82" xlink:href="#linear-gradient"/><linearGradient id="linear-gradient-35" x1="42.89" y1="47.12" x2="153.62" y2="148.41" xlink:href="#linear-gradient"/><linearGradient id="linear-gradient-36" x1="39.48" y1="50.85" x2="150.2" y2="152.14" xlink:href="#linear-gradient"/><linearGradient id="linear-gradient-37" x1="38.27" y1="52.18" x2="148.99" y2="153.47" xlink:href="#linear-gradient"/><linearGradient id="linear-gradient-38" x1="37.42" y1="53.1" x2="148.15" y2="154.39" xlink:href="#linear-gradient"/><linearGradient id="linear-gradient-39" x1="36.93" y1="53.63" x2="147.66" y2="154.92" xlink:href="#linear-gradient"/><linearGradient id="linear-gradient-40" x1="36.78" y1="53.8" x2="147.51" y2="155.09" xlink:href="#linear-gradient"/><linearGradient id="linear-gradient-41" x1="36.74" y1="53.84" x2="147.47" y2="155.13" xlink:href="#linear-gradient"/><linearGradient id="linear-gradient-42" x1="37.45" y1="53.06" x2="148.18" y2="154.35" xlink:href="#linear-gradient"/><linearGradient id="linear-gradient-43" x1="38.09" y1="52.37" x2="148.81" y2="153.66" xlink:href="#linear-gradient"/><linearGradient id="linear-gradient-44" x1="37.03" y1="53.53" x2="147.75" y2="154.82" xlink:href="#linear-gradient"/><linearGradient id="linear-gradient-45" x1="39.95" y1="50.34" x2="150.67" y2="151.62" xlink:href="#linear-gradient"/><linearGradient id="linear-gradient-46" x1="42.95" y1="47.05" x2="153.68" y2="148.34" xlink:href="#linear-gradient"/><linearGradient id="linear-gradient-47" x1="43.91" y1="46.01" x2="154.64" y2="147.3" xlink:href="#linear-gradient"/><linearGradient id="linear-gradient-48" x1="43.77" y1="46.16" x2="154.5" y2="147.45" xlink:href="#linear-gradient"/><linearGradient id="linear-gradient-49" x1="43.93" y1="45.98" x2="154.66" y2="147.27" xlink:href="#linear-gradient"/><linearGradient id="linear-gradient-50" x1="43.85" y1="46.07" x2="154.58" y2="147.36" xlink:href="#linear-gradient"/><linearGradient id="linear-gradient-51" x1="41.16" y1="49.01" x2="151.89" y2="150.3" xlink:href="#linear-gradient"/><linearGradient id="linear-gradient-52" x1="38.9" y1="51.48" x2="149.63" y2="152.77" xlink:href="#linear-gradient"/><linearGradient id="linear-gradient-53" x1="43.73" y1="46.2" x2="154.46" y2="147.49" xlink:href="#linear-gradient"/><linearGradient id="linear-gradient-54" x1="42.21" y1="47.86" x2="152.94" y2="149.15" xlink:href="#linear-gradient"/><linearGradient id="linear-gradient-55" x1="43.98" y1="45.93" x2="154.71" y2="147.22" xlink:href="#linear-gradient"/><linearGradient id="linear-gradient-56" x1="43.43" y1="46.53" x2="154.15" y2="147.82" xlink:href="#linear-gradient"/><linearGradient id="linear-gradient-57" x1="43.99" y1="45.92" x2="154.71" y2="147.21" xlink:href="#linear-gradient"/><linearGradient id="linear-gradient-114" x1="12.32" y1="86.28" x2="155" y2="86.28" gradientUnits="userSpaceOnUse"><stop offset="0" stop-color="#f12711"/><stop offset="1" stop-color="#f5af19"/></linearGradient><linearGradient id="linear-gradient-115" x1="12.33" y1="89.86" x2="136.09" y2="89.86" xlink:href="#linear-gradient-114"/><linearGradient id="linear-gradient-116" x1="-31.13" y1="68.58" x2="124.89" y2="189.97" xlink:href="#linear-gradient-114"/><linearGradient id="linear-gradient-117" x1="42.1" y1="-25.54" x2="198.12" y2="95.85" xlink:href="#linear-gradient-114"/><linearGradient id="linear-gradient-118" x1="-11.97" y1="43.96" x2="144.05" y2="165.34" xlink:href="#linear-gradient-114"/><linearGradient id="linear-gradient-119" x1="39.2" y1="-21.82" x2="195.23" y2="99.57" xlink:href="#linear-gradient-114"/><linearGradient id="linear-gradient-120" x1="-49.56" y1="92.27" x2="106.46" y2="213.66" xlink:href="#linear-gradient-114"/><linearGradient id="linear-gradient-121" x1="21.18" y1="85.02" x2="168.15" y2="85.02" xlink:href="#linear-gradient-114"/></defs><g class="cls-1"><g id="Layer_2" data-name="Layer 2"><g id="OBJECTS"><path class="cls-2" d="M.92,99.85c0,12.76,6.4,25.81,17.56,32,7.47,4.13,16.36,5,24,8.83s13.61,10.53,20.91,15.09a45.64,45.64,0,0,0,35.1,5.35,47.26,47.26,0,0,0,28.43-21.38c7.18-12,8.72-26.52,8.88-40.51s-.87-28.14,1.82-41.87c1.67-8.48,4.74-16.78,4.77-25.42s-4-18.13-12.18-21c-5.07-1.78-10.79-.65-15.55,1.84S105.93,19,102,22.7C91.84,32.43,81.23,42.57,67.8,46.87,59.16,49.64,49.93,49.78,41,51.14,16.75,54.79.82,75.13.92,99.85Z"/><path class="cls-3" d="M155.4,49.07l0,0L144.55,59.93l0,0,0,0L133.61,70.86l0,0h0L122.72,81.75l0,0h0L111.86,92.61l0,0,0,0L101,103.51h0l0,0L90.07,114.4h0l0,0L79.17,125.3l0,0,0,0L68.28,136.19l0,0,0,0L57.38,147.09l0,0,0,0-7.69,7.69,1.06-.33,7-7,0,0,0,0,10.82-10.82,0,0,0,0,10.82-10.82,0,0,0,0,10.82-10.82h0l0,0L101.25,104h0l0,0,10.86-10.86,0,0,0,0,10.86-10.85,0,0h0L134,71.22l0,0h0l10.82-10.82,0,0,0,0,10.82-10.82,0,0,0,0,1.81-1.81c.07-.31.14-.62.2-.93L155.44,49Z"/><path class="cls-4" d="M153.59,47.25l0,0L142.73,58.11l0,0,0,0L131.84,69l0,0,0,0L120.94,79.9l0,0,0,0L110,90.8l0,0,0,0L99.15,101.69l0,0,0,0L88.25,112.59l0,0,0,0L77.36,123.48l0,0,0,0L66.46,134.38l0,0,0,0L55.57,145.27l0,0,0,0L44.9,155.94l.85-.13,10.11-10.1,0,0,0,0,10.82-10.82,0,0,0,0,10.82-10.82,0,0,0,0L88.54,113l0,0,0,0,10.82-10.82,0,0,0,0,10.82-10.82,0,0,0,0,10.82-10.82,0,0,0,0,10.82-10.82,0,0,0,0L143,58.55l0,0,0,0,10.82-10.82,0,0,0,0,4.38-4.39q.06-.4.09-.81l-4.83,4.83Z"/><path class="cls-5" d="M148.14,63.6l0,0L137.28,74.45l0,0,0,0L126.39,85.35l0,0,0,0L115.49,96.24l0,0,0,0L104.6,107.14l0,0,0,0L93.7,118l0,0,0,0L82.81,128.93l0,0,0,0L71.91,139.82l0,0,0,0L61.71,150l1.22-.5,9.27-9.27,0,0,0,0,10.82-10.82,0,0,0,0L94,118.47l0,0,0,0,10.81-10.82,0,0,0,0,10.82-10.82,0,0,0,0,10.82-10.82,0,0,0,0,10.82-10.82,0,0,0,0L148.47,64l0,0,0,0,6.19-6.19c.12-.36.23-.71.34-1.07l-6.89,6.9Z"/><path class="cls-6" d="M150,65.41l0,0L139.06,76.31l0,0h0L128.17,87.2l0,0h0L117.31,98.06l0,0,0,0L106.41,109h0l0,0L95.52,119.85h0l0,0L84.62,130.74l0,0,0,0L73.73,141.64l0,0,0,0-6.12,6.12,1.07-.34L74,142.08l0,0,0,0,10.82-10.82,0,0,0,0,10.82-10.82h0l0,0,10.86-10.86h0l0,0L117.6,98.5l0,0,0,0,10.86-10.85,0,0h0l10.85-10.86,0,0h0l10.82-10.82,0,0,0,0,2.56-2.57c.13-.36.25-.73.38-1.1L150,65.37Z"/><path class="cls-7" d="M146.32,61.78l0,0L135.47,72.64h0l0,0L124.57,83.53h0l0,0L113.68,94.43l0,0,0,0-10.86,10.86,0,0h0L91.85,116.26l0,0h0L81,127.11l0,0,0,0L70.1,138l0,0,0,0L59.2,148.9l0,0,0,0-3.76,3.76,1.26-.53,2.87-2.87,0,0,0,0,10.82-10.82,0,0,0,0,10.82-10.82,0,0,0,0,10.86-10.86,0,0h0l10.86-10.86,0,0h0L114,94.87l0,0,0,0L124.86,84h0l0,0,10.85-10.85h0l0,0,10.86-10.86,0,0,0,0,9.6-9.6c.1-.34.19-.67.28-1L146.36,61.74Z"/><path class="cls-8" d="M140.88,78.12l0,0L130,89h0l0,0L119.12,99.88h0l0,0-10.9,10.9,0,0h0L97.3,121.7l0,0h0L86.44,132.56l0,0,0,0L75.54,143.46l0,0,0,0-2.8,2.8,1-.24,2.19-2.19,0,0,0,0L86.73,133l0,0,0,0,10.86-10.85,0,0h0l10.85-10.86,0,0h0l10.82-10.82h0l0,0,10.86-10.86h0l0,0L141.2,78.52l0,0,0,0L151,68.71c.12-.37.25-.74.38-1.11L140.92,78.08Z"/><path class="cls-9" d="M142.69,79.94l0,0L131.84,90.8l0,0,0,0-10.82,10.82,0,0,0,0L110,112.59l0,0,0,0L99.15,123.48l0,0,0,0L88.22,134.41l0,0h0L77.32,145.31h.07l.81-.14,10.38-10.38,0,0h0l10.82-10.82,0,0,0,0L110.33,113l0,0,0,0,10.82-10.82,0,0,0,0,10.82-10.82,0,0,0,0L143,80.34l0,0,0,0,6.08-6.07.36-1.09-6.8,6.8Z"/><path class="cls-10" d="M144.47,81.79h0L133.65,92.61l0,0,0,0-10.82,10.82,0,0,0,0L111.86,114.4l0,0,0,0L101,125.3h0l0,0L90.07,136.19h0l0,0-8.46,8.46.81-.08,8-8h0l0,0,10.85-10.85h0l0,0,10.86-10.86,0,0,0,0L123,104l0,0,0,0,10.82-10.82,0,0,0,0,10.86-10.85,0,0h0l2.61-2.61c.1-.34.2-.69.31-1l-3.32,3.31Z"/><path class="cls-11" d="M45,47.58h0L55.86,36.76l0,0h0l0,0,6-5.95-.69,0-5.66,5.66h0L44.64,47.25l0,0h0l-7.23,7.23-.06.28c-.05.21-.09.43-.14.64L45,47.62Z"/><path class="cls-12" d="M140.88,143.49l0,0L137,147.35c.53-.25,1-.52,1.54-.81l2.64-2.64,0,0,0,0,4.14-4.14c.25-.46.48-.94.69-1.42l-5.19,5.2Z"/><path class="cls-13" d="M139.06,141.68l0,0-7.54,7.54,1-.24,6.94-6.94,0,0,0,0,7.89-7.88c.05-.29.1-.58.14-.87l-8.39,8.39Z"/><path class="cls-14" d="M46.81,49.43l0,0L57.67,38.57l0,0,0,0,7.42-7.42L64.53,31l-7.15,7.14,0,0,0,0L46.49,49l0,0,0,0L36.48,59c-.06.3-.11.59-.16.89L46.78,49.47Z"/><path class="cls-15" d="M43.18,45.8l0,0L54,34.94l0,0,0,0,4.14-4.15-.79.07L53.75,34.5l0,0,0,0L42.86,45.4l0,0,0,0-4.11,4.11c-.1.35-.21.69-.31,1l4.78-4.78Z"/><path class="cls-16" d="M41.37,44l0,0L52.22,33.13l0,0,0,0,1.58-1.58q-.54.16-1.08.36l-.86.86,0,0,0,0L41,43.58l0,0h0q-.33.68-.63,1.35l.95-.95Z"/><path class="cls-17" d="M110.41,134.74h0l10.82-10.82,0,0,0,0L132.12,113l0,0,0,0L143,102.13l0,0,0,0,.71-.71c0-.24,0-.48,0-.73l-1.08,1.08,0,0,0,0-10.81,10.82,0,0,0,0-10.82,10.82,0,0,0,0L110,134.41l0,0h0L99.11,145.31l0,0h0l-.15.15.48.1.09,0h0l10.85-10.84Z"/><path class="cls-18" d="M134,136.59l0,0,10.82-10.82,0,0,0,0,2.34-2.34c0-.21-.07-.42-.1-.63l-2.6,2.61,0,0,0,0-10.82,10.82,0,0,0,0-10.82,10.82,0,0,0,0-2.7,2.71.56.06h.09l2.41-2.41,0,0,0,0,10.82-10.82Z"/><path class="cls-19" d="M115.86,140.19h0l10.82-10.82,0,0,0,0,10.82-10.82,0,0,0,0,7.12-7.13c0-.2-.07-.41-.11-.61L137.28,118l0,0,0,0-10.82,10.82,0,0,0,0-10.86,10.86,0,0h0l-7.64,7.63.59.15,7.45-7.45Z"/><path class="cls-20" d="M121.3,145.64h0l10.86-10.86,0,0h0L143,123.92l0,0,0,0,3.61-3.6c0-.2-.08-.4-.13-.6l-3.84,3.84,0,0,0,0L131.8,134.41l0,0h0L120.9,145.31l0,0h0l-4.09,4.09.63.1,3.87-3.87Z"/><path class="cls-21" d="M137.21,139.9h0l-10,10,.81-.08,9.63-9.62,0,0h0l10.11-10.11v-.74l-10.51,10.52Z"/><path class="cls-22" d="M135.75,138.45l0,0,10.86-10.86,0,0,0,0,.92-.93-.06-.66-1.23,1.22,0,0,0,0L135.47,138h0l0,0L124.57,148.9h0l0,0-1.13,1.13.72,0,.74-.75h0l0,0,10.85-10.85Z"/><path class="cls-23" d="M37.7,62.18l0,0L48.59,51.29l0,0,0,0L59.49,40.39l0,0,0,0,8.73-8.72-.62-.11L59.2,40l0,0,0,0L48.31,50.85l0,0,0,0L37.41,61.74h0l0,0-1.65,1.65-.15.87,2.13-2.12Z"/><path class="cls-24" d="M39.55,64l0,0L50.45,53.06l0,0h0L61.3,42.21l0,0,0,0,9.93-9.94-.6-.12L61,41.8,50.08,52.7l0,0h0L39.23,63.56l0,0,0,0L35,67.84c-.06.3-.12.59-.17.89L39.51,64Z"/><path class="cls-25" d="M41.37,65.77l0,0L52.22,54.92l0,0,0,0L63.12,44l0,0,0,0L74,33.13l0,0,0,0,.23-.23-.58-.12h0l0,0,0,0L62.83,43.58l0,0,0,0L51.94,54.48l0,0,0,0L41,65.37l0,0,0,0-7,7-.25,1,7.59-7.59Z"/><path class="cls-26" d="M36,82.08h0L46.81,71.22l0,0h0L57.67,60.36l0,0,0,0L68.57,49.47l0,0,0,0L79.46,38.57l0,0,0,0,4.28-4.28-.68,0-4,4,0,0,0,0L68.28,49l0,0,0,0L57.38,59.93l0,0,0,0L46.45,70.86l0,0h0L35.56,81.75l0,0h0l-7.73,7.73-.57,1.29,8.7-8.69Z"/><path class="cls-27" d="M112.19,136.59l0,0L123,125.74l0,0,0,0,10.82-10.82,0,0,0,0,9.91-9.91c0-.23,0-.45,0-.68L133.65,114.4l0,0,0,0L122.76,125.3l0,0,0,0-10.82,10.82,0,0,0,0-9.87,9.87.59.13,9.64-9.64Z"/><path class="cls-28" d="M108.55,133l0,0,10.82-10.82,0,0,0,0,10.82-10.82,0,0,0,0,10.82-10.82,0,0,0,0,2.66-2.67.06-.78-3.08,3.08,0,0,0,0L130,110.77l0,0,0,0-10.82,10.82,0,0,0,0-10.82,10.82,0,0,0,0L97.33,143.46l0,0,0,0L95.83,145l.63.1,1.16-1.16,0,0,0,0L108.52,133Z"/><path class="cls-29" d="M106.7,131.18h0l0,0,10.86-10.86,0,0,0,0,10.82-10.82,0,0,0,0L139.39,98.5l0,0,0,0,4.9-4.9c0-.28.07-.56.11-.84l-5.37,5.38,0,0,0,0L128.2,109l0,0,0,0-10.82,10.82,0,0,0,0-10.82,10.82h0l0,0L95.52,141.64h0l0,0-2.88,2.88.31,0,.35,0,2.55-2.54h0l0,0Z"/><path class="cls-30" d="M94.07,140.19h0l10.82-10.82,0,0,0,0,10.82-10.82,0,0,0,0,10.82-10.82,0,0,0,0,10.82-10.82,0,0,0,0,7.43-7.44c.06-.3.13-.61.19-.92l-8,8,0,0,0,0-10.82,10.82,0,0,0,0L115.49,118l0,0,0,0L104.6,128.93l0,0,0,0L93.66,139.86l0,0h0l-4.46,4.45.7,0L94,140.23Z"/><path class="cls-31" d="M119.41,143.9l0,0L130.31,133h0l0,0,10.89-10.89,0,0h0l4.77-4.78c0-.2-.08-.39-.13-.59l-5,5,0,0h0L130,132.56h0l0,0-10.86,10.86h0l0,0-5.39,5.39.61.12,5.1-5.11Z"/><path class="cls-32" d="M117.63,142l0,0,10.82-10.82,0,0,0,0,10.82-10.82,0,0,0,0,5.93-5.93c0-.2-.08-.39-.13-.59l-6.16,6.16,0,0,0,0L128.2,130.74l0,0,0,0-10.82,10.82,0,0,0,0-6.51,6.51.59.13,6.29-6.28Z"/><path class="cls-33" d="M114,138.41l0,0,10.82-10.82h0l0,0,10.89-10.89,8.47-8.46c0-.17-.06-.33-.08-.49s0-.1,0-.15l-8.7,8.7,0,0,0,0-10.82,10.82h0l0,0L113.68,138l0,0,0,0-8.74,8.75.58.14,8.52-8.52Z"/><path class="cls-34" d="M32.25,78.52l0,0L43.14,67.63l0,0,0,0L54,56.73l0,0,0,0L64.94,45.84l0,0,0,0L75.83,34.94l0,0,0,0,1.45-1.46-.61-.11-1.21,1.2,0,0,0,0L64.65,45.4l0,0,0,0L53.75,56.29l0,0,0,0L42.86,67.19l0,0,0,0L32.56,77.48c-.09.3-.2.61-.3.91l0,0a.5.5,0,0,1,0,.13l0,0Z"/><path class="cls-35" d="M34.1,80.3l0,0L45,69.44l0,0,0,0L55.86,58.55h0l0,0,10.9-10.89,10.89-10.9,0,0h0l2.78-2.77-.64-.09-2.54,2.54,0,0h0L66.46,47.21l0,0,0,0L55.57,58.11h0l0,0L44.67,69l0,0,0,0L33.78,79.9l0,0,0,0-3.23,3.23c-.16.4-.33.81-.49,1.22l4.09-4.09Z"/><path class="cls-36" d="M92.21,138.41l0,0,10.82-10.82,0,0,0,0L114,116.62l0,0h0l10.82-10.82,0,0,0,0,10.82-10.82h0l0,0,10.35-10.35c.07-.29.14-.58.22-.87l0-.06v0l0,0,0,0,0,0L135.47,94.43h0l0,0-10.9,10.89-10.89,10.9,0,0h0l-10.82,10.82,0,0,0,0L91.89,138l0,0,0,0-6.3,6.31.75,0,5.91-5.91Z"/><path class="cls-37" d="M26.8,94.87l0,0L37.7,84h0l0,0L48.59,73.08l0,0,0,0L59.49,62.18l0,0,0,0L70.38,51.29l0,0,0,0L81.28,40.39l0,0,0,0,5.91-5.9-.7,0L81,40l0,0,0,0L70.1,50.85l0,0,0,0L59.2,61.74l0,0,0,0L48.31,72.64l0,0,0,0L37.41,83.53h0l0,0L26.51,94.43h0l0,0L25,96l-.54,1.26,2.37-2.36Z"/><path class="cls-38" d="M28.66,96.64l0,0L39.51,85.79l0,0,0,0L50.41,74.89l0,0,0,0L61.3,64h0l0,0,10.9-10.9L83.13,42.17l0,0h0l7.62-7.62h-.71l-7.31,7.3,0,0h0L71.91,52.66l0,0,0,0L61,63.56h0l0,0L50.12,74.45l0,0,0,0L39.23,85.35l0,0,0,0L28.33,96.24l0,0,0,0L22.55,102c-.14.37-.27.74-.4,1.12l6.47-6.47Z"/><path class="cls-39" d="M30.47,98.46l0,0L41.37,87.56l0,0h0L52.26,76.67l0,0h0L63.12,65.81l0,0,0,0L74,54.92l0,0,0,0L84.91,44l0,0,0,0,9.43-9.44h-.73l-9.07,9.06,0,0,0,0L73.73,54.48l0,0,0,0L62.83,65.37l0,0,0,0L51.9,76.31l0,0h0L41,87.2l0,0h0L30.15,98.06l0,0,0,0-9.26,9.26-.27,1,9.89-9.89Z"/><path class="cls-40" d="M21.43,111.13h0l10.82-10.82h0l0,0L43.14,89.42l0,0,0,0L54,78.52l0,0,0,0L64.94,67.63l0,0,0,0L75.83,56.73l0,0,0,0L86.73,45.84l0,0,0,0L97.62,34.94l0,0,0,0,.48-.48-.77,0-.08.07,0,0,0,0L86.44,45.4l0,0,0,0L75.54,56.29l0,0,0,0L64.65,67.19l0,0,0,0L53.75,78.08l0,0,0,0L42.86,89l0,0,0,0L32,99.88h0l0,0L21,110.81l0,0h0l-1.28,1.27-.15.89,1.83-1.84Z"/><path class="cls-41" d="M25,114.8l0,0L35.88,104l0,0,0,0L46.78,93.05l0,0,0,0L57.71,82.12l0,0h0L68.6,71.22l0,0h0L79.46,60.36l0,0,0,0L90.36,49.47h0l0,0,10.85-10.86h0l0,0,4.78-4.78-.81.08L101,38.14h0l0,0L90.07,49h0l0,0L79.17,59.93l0,0,0,0L68.24,70.86l0,0h0L57.35,81.75l0,0h0L46.49,92.61l0,0,0,0L35.59,103.51l0,0,0,0L24.7,114.4l0,0,0,0-5.68,5.68c0,.25,0,.49,0,.73l6.06-6Z"/><path class="cls-42" d="M23.21,113l0,0,10.82-10.82,0,0,0,0L45,91.23l0,0,0,0L55.86,80.34h0l0,0L66.75,69.44h0l0,0L77.65,58.55l0,0,0,0L88.58,47.62l0,0h0L99.48,36.72l0,0h0l2.55-2.54-.79.06-2.16,2.16,0,0h0L88.22,47.25l0,0h0L77.36,58.11l0,0,0,0L66.46,69h0l0,0L55.57,79.9h0l0,0L44.67,90.8l0,0,0,0L33.78,101.69l0,0,0,0L22.88,112.59l0,0,0,0-3.67,3.67c0,.26-.05.53-.07.8l4.1-4.11Z"/><path class="cls-43" d="M28.66,118.43l0,0,10.82-10.82,0,0,0,0L50.41,96.68l0,0,0,0L61.3,85.79h0l0,0L72.2,74.89h0l0,0L83.09,64l0,0,0,0L94,53.06l0,0h0l10.86-10.86,0,0h0l9.64-9.64-.88.15-9.16,9.16,0,0h0L93.66,52.7l0,0h0L82.81,63.56l0,0,0,0L71.91,74.45h0l0,0L61,85.35h0l0,0L50.12,96.24l0,0,0,0L39.23,107.14l0,0,0,0L28.33,118l0,0,0,0L19.32,127c0,.22.05.43.08.65l9.22-9.22Z"/><path class="cls-44" d="M30.47,120.25l0,0,10.82-10.82,0,0,0,0L52.22,98.5l0,0,0,0L63.16,87.56l0,0h0L74.05,76.67l0,0h0L84.91,65.81l0,0,0,0L95.81,54.92h0l0,0L106.7,44h0l0,0L117.6,33.13l0,0,0,0,1.51-1.51-.94.22-.93.93,0,0,0,0L106.41,43.58h0l0,0L95.52,54.48h0l0,0L84.62,65.37l0,0,0,0L73.69,76.31l0,0h0L62.79,87.2l0,0h0L51.94,98.06l0,0,0,0L41,109l0,0,0,0L30.15,119.85l0,0,0,0L19.82,130.18l.12.6,10.49-10.49Z"/><path class="cls-45" d="M26.84,116.62l0,0L37.7,105.76l0,0,0,0L48.59,94.87l0,0,0,0L59.49,84l0,0,0,0L70.38,73.08l0,0,0,0L81.28,62.18l0,0,0,0L92.17,51.29l0,0,0,0,10.82-10.82,0,0,0,0,7.11-7.1-.86.13L102.78,40l0,0,0,0L91.89,50.85l0,0,0,0L81,61.74l0,0,0,0L70.1,72.64l0,0,0,0L59.2,83.53l0,0,0,0L48.31,94.43l0,0,0,0L37.41,105.32l0,0,0,0L26.51,116.22l0,0,0,0L19,123.72c0,.23,0,.45,0,.68l7.74-7.74Z"/><path class="cls-46" d="M23.25,134.74h0l10.82-10.82,0,0,0,0L45,113l0,0,0,0,10.82-10.82h0l0,0L66.75,91.23h0l0,0L77.65,80.34l0,0,0,0L88.54,69.44l0,0,0,0L99.44,58.55l0,0,0,0,10.86-10.85,0,0h0l10.86-10.86,0,0h0l7.84-7.83-1,.32-7.19,7.19,0,0h0L110,47.25l0,0h0L99.15,58.11l0,0,0,0L88.25,69l0,0,0,0L77.36,79.9l0,0,0,0L66.46,90.8h0l0,0L55.57,101.69h0l0,0L44.67,112.59l0,0,0,0L33.78,123.48l0,0,0,0L22.84,134.41l0,0h0L21.29,136l.18.54,1.74-1.73Z"/><path class="cls-47" d="M28.69,140.19h0l10.82-10.82,0,0,0,0,10.82-10.82,0,0,0,0L61.3,107.58h0l0,0L72.2,96.68h0l0,0L83.09,85.79l0,0,0,0L94,74.89l0,0,0,0L104.88,64l0,0,0,0,10.86-10.86,0,0h0l10.85-10.86,0,0h0l10.82-10.82,0,0,0,0,5.89-5.89-.76,0-5.5,5.49,0,0,0,0L126.35,41.8l0,0h0L115.45,52.7l0,0h0L104.6,63.56l0,0,0,0L93.7,74.45l0,0,0,0L82.81,85.35l0,0,0,0L71.91,96.24h0l0,0L61,107.14h0l0,0L50.12,118l0,0,0,0L39.23,128.93l0,0,0,0L28.29,139.86l0,0h0l-3.75,3.76.25.47,3.91-3.9Z"/><path class="cls-48" d="M34.14,145.64h0L45,134.78l0,0h0l10.82-10.82h0l0,0L66.75,113h0l0,0,10.86-10.86,0,0,0,0L88.54,91.23l0,0,0,0L99.44,80.34l0,0,0,0,10.82-10.82,0,0,0,0,10.82-10.82,0,0,0,0,10.86-10.85,0,0h0l10.86-10.86,0,0h0l9.33-9.32L152,27.1l-9.26,9.26,0,0h0L131.8,47.25l0,0h0L120.94,58.11l0,0,0,0L110,69l0,0,0,0L99.15,79.9l0,0,0,0L88.25,90.8l0,0,0,0L77.36,101.69l0,0,0,0L66.46,112.59h0l0,0L55.57,123.48h0l0,0L44.64,134.41l0,0h0L33.74,145.31l0,0h0l-4.79,4.79.35.37,4.84-4.84Z"/><path class="cls-49" d="M54.08,143.86l0,0L64.94,133l0,0,0,0,10.86-10.85,0,0h0l10.85-10.86,0,0h0l10.82-10.82,0,0,0,0,10.82-10.82,0,0,0,0,10.82-10.82h0l0,0,10.86-10.86h0l0,0L141.2,56.73l0,0,0,0L152.1,45.84l0,0,0,0,6.4-6.39,0-.7-6.73,6.73,0,0,0,0L140.92,56.29l0,0,0,0L130,67.19h0l0,0L119.12,78.08h0l0,0L108.23,89l0,0,0,0L97.33,99.87l0,0,0,0L86.4,110.81l0,0h0L75.51,121.7l0,0h0L64.65,132.56l0,0,0,0L53.75,143.46l0,0,0,0L42.86,154.35l0,0-1.77,1.76h.73l1.4-1.41,0,0L54,143.9Z"/><path class="cls-50" d="M39.59,151.08h0l10.86-10.85,0,0h0L61.3,129.37h0l0,0L72.2,118.47h0l0,0,10.85-10.85,0,0,0,0L94,96.68l0,0,0,0,10.81-10.82,0,0,0,0,10.82-10.82,0,0,0,0L126.68,64l0,0,0,0,10.86-10.86,0,0h0L148.5,42.17l0,0h0l8.89-8.89c-.07-.17-.15-.34-.22-.5l-9.07,9.06,0,0h0L137.25,52.7l0,0h0L126.39,63.56l0,0,0,0L115.49,74.45l0,0,0,0L104.6,85.35l0,0,0,0L93.7,96.24l0,0,0,0L82.81,107.14l0,0,0,0L71.91,118h0l0,0L61,128.93h0l0,0-10.9,10.89,0,0h0L39.19,150.76l0,0h0l-4,4,.52.2,3.89-3.89Z"/><path class="cls-51" d="M41.4,152.9l10.82-10.82,0,0,0,0,10.82-10.82,0,0,0,0L74,120.29l0,0,0,0,10.82-10.82,0,0,0,0L95.81,98.5h0l0,0,10.9-10.9,10.89-10.89,0,0h0l10.82-10.82,0,0,0,0,10.82-10.82,0,0,0,0L150.28,44l0,0,0,0,7.88-7.89c0-.2-.08-.4-.13-.59L150,43.58l0,0,0,0L139.1,54.48l0,0,0,0L128.2,65.37l0,0,0,0L117.27,76.31l0,0h0L106.41,87.16l0,0,0,0L95.52,98.06h0l0,0L84.62,109l0,0,0,0L73.73,119.85l0,0,0,0L62.83,130.74l0,0,0,0L51.94,141.64l0,0,0,0L41,152.54l0,0,0,0-3.11,3.11.61.11,2.9-2.89Z"/><path class="cls-52" d="M25,136.59l0,0,10.82-10.82,0,0,0,0,10.82-10.82,0,0,0,0L57.67,104l0,0,0,0L68.57,93.05l0,0,0,0L79.5,82.12l0,0h0L90.36,71.26l0,0,0,0,10.82-10.82h0l0,0,10.86-10.86,0,0,0,0L123,38.57l0,0,0,0,10.82-10.82,0,0,0,0,.5-.49-.75.23-.06,0-.25.08L122.76,38.13l0,0,0,0L111.86,49l0,0,0,0L101,59.93h0l0,0L90,70.86,79.14,81.75l0,0h0L68.28,92.61l0,0,0,0L57.38,103.51l0,0,0,0L46.49,114.4l0,0,0,0L35.59,125.3l0,0,0,0L24.7,136.19l0,0,0,0-2.38,2.38.2.53L25,136.63Z"/><path class="cls-53" d="M21.39,133l0,0L32.25,122.1l0,0,10.89-10.9,0,0h0L54,100.31l0,0,0,0L64.94,89.42l0,0,0,0L75.83,78.52l0,0,0,0L86.73,67.63l0,0,0,0L97.62,56.73l0,0,0,0,10.82-10.82,0,0,0,0,10.82-10.82h0l0,0L124,30.35l-1,.26-3.89,3.89h0l0,0L108.23,45.4l0,0,0,0L97.33,56.29l0,0,0,0L86.44,67.19l0,0,0,0L75.54,78.08l0,0,0,0L64.65,89l0,0,0,0L53.75,99.87l0,0,0,0L42.82,110.81l0,0h0L32,121.67l0,0L21.07,132.56l0,0,0,0-.51.51c.05.19.09.38.15.58l.72-.73Z"/><path class="cls-54" d="M32.25,143.9l0,0L43.14,133l0,0,0,0,10.86-10.85,0,0h0L65,111.17l0,0h0l10.82-10.82,0,0,0,0L86.73,89.42l0,0,0,0L97.62,78.52l0,0,0,0,10.82-10.82,0,0,0,0,10.82-10.82h0l0,0,10.86-10.85h0l0,0L141.2,34.94l0,0,0,0,8.64-8.65-.55-.17-8.45,8.45,0,0,0,0L130,45.4h0l0,0L119.12,56.29h0l0,0L108.23,67.19l0,0,0,0L97.33,78.08l0,0,0,0L86.44,89l0,0,0,0L75.54,99.87l0,0,0,0L64.61,110.81l0,0h0L53.71,121.7l0,0h0L42.86,132.56l0,0,0,0L32,143.46h0l0,0-4.64,4.65c.11.13.21.27.31.41l4.66-4.66Z"/><path class="cls-55" d="M26.8,138.45l0,0L37.7,127.55h0l0,0,10.89-10.89,0,0h0l10.86-10.86,0,0h0L70.38,94.87l0,0,0,0L81.28,84l0,0,0,0L92.17,73.08l0,0,0,0,10.82-10.82,0,0,0,0L114,51.29l0,0,0,0,10.82-10.82h0l0,0,10.85-10.86h0l0,0,3.62-3.62-.92.19-3,3h0l0,0L124.57,40h0l0,0L113.68,50.85l0,0,0,0L102.78,61.74l0,0,0,0L91.89,72.64l0,0,0,0L81,83.53l0,0,0,0L70.1,94.43l0,0,0,0L59.16,105.36l0,0h0L48.27,116.26l0,0h0L37.41,127.11h0l0,0L26.51,138h0l0,0-3.17,3.17c.07.16.15.33.23.49l3.26-3.26Z"/><path class="cls-56" d="M35.92,147.49l0,0,10.82-10.82,0,0,0,0,10.82-10.82,0,0,0,0,10.82-10.82,0,0,0,0L79.46,104l0,0,0,0L90.36,93.05h0l0,0,10.89-10.89,10.9-10.9,0,0h0L123,60.36l0,0,0,0,10.82-10.82,0,0,0,0,10.82-10.82,0,0,0,0,9.59-9.59-.38-.35-9.57,9.57,0,0,0,0L133.65,49l0,0,0,0L122.76,59.93l0,0,0,0L111.82,70.86l0,0h0L101,81.72l0,0,0,0L90.07,92.61h0l0,0L79.17,103.51l0,0,0,0L68.28,114.4l0,0,0,0L57.38,125.3l0,0,0,0L46.49,136.19l0,0,0,0L35.59,147.09l0,0,0,0-4.78,4.78.39.34,4.75-4.75Z"/><path class="cls-57" d="M30.47,142l0,0,10.82-10.82,0,0,0,0,10.82-10.82,0,0,0,0,10.82-10.82,0,0,0,0L74,98.5l0,0,0,0L85,87.56l0,0h0L95.81,76.71l0,0,0,0L106.7,65.81h0l0,0L117.6,54.92l0,0,0,0L128.49,44l0,0,0,0,10.82-10.82,0,0,0,0L147,25.53l-.64-.09-7.24,7.25,0,0,0,0L128.2,43.58l0,0,0,0L117.31,54.48l0,0,0,0L106.41,65.37h0l0,0-10.9,10.9L84.58,87.2l0,0h0L73.73,98.06l0,0,0,0L62.83,109l0,0,0,0L51.94,119.85l0,0,0,0L41,130.74l0,0,0,0L30.15,141.64l0,0,0,0L25.82,146c.09.15.18.3.28.44l4.33-4.33Z"/><path class="cls-58" d="M37.7,149.34l0,0,10.86-10.85,0,0,0,0,10.82-10.82,0,0,0,0,10.86-10.86,0,0h0l10.86-10.86,0,0h0L92.17,94.87l0,0,0,0L103.07,84l0,0,0,0L114,73.08l0,0,0,0,10.82-10.82h0l0,0,10.85-10.86h0l0,0,10.86-10.86,0,0,0,0,9.44-9.44-.3-.43L146.36,40l0,0,0,0L135.47,50.85h0l0,0L124.57,61.74h0l0,0L113.68,72.64l0,0,0,0L102.78,83.53l0,0,0,0L91.89,94.43l0,0,0,0L81,105.36l0,0h0L70.06,116.26l0,0h0L59.2,127.11l0,0,0,0L48.31,138l0,0,0,0L37.41,148.9h0l0,0-4.57,4.57.44.29,4.46-4.46Z"/><g class="cls-59"><path class="cls-3" d="M155.4,49.07l0,0L144.55,59.93l0,0,0,0L133.61,70.86l0,0h0L122.72,81.75l0,0h0L111.86,92.61l0,0,0,0L101,103.51h0l0,0L90.07,114.4h0l0,0L79.17,125.3l0,0,0,0L68.28,136.19l0,0,0,0L57.38,147.09l0,0,0,0-7.69,7.69,1.06-.33,7-7,0,0,0,0,10.82-10.82,0,0,0,0,10.82-10.82,0,0,0,0,10.82-10.82h0l0,0L101.25,104h0l0,0,10.86-10.86,0,0,0,0,10.86-10.85,0,0h0L134,71.22l0,0h0l10.82-10.82,0,0,0,0,10.82-10.82,0,0,0,0,1.81-1.81c.07-.31.14-.62.2-.93L155.44,49Z"/><path class="cls-4" d="M153.59,47.25l0,0L142.73,58.11l0,0,0,0L131.84,69l0,0,0,0L120.94,79.9l0,0,0,0L110,90.8l0,0,0,0L99.15,101.69l0,0,0,0L88.25,112.59l0,0,0,0L77.36,123.48l0,0,0,0L66.46,134.38l0,0,0,0L55.57,145.27l0,0,0,0L44.9,155.94l.85-.13,10.11-10.1,0,0,0,0,10.82-10.82,0,0,0,0,10.82-10.82,0,0,0,0L88.54,113l0,0,0,0,10.82-10.82,0,0,0,0,10.82-10.82,0,0,0,0,10.82-10.82,0,0,0,0,10.82-10.82,0,0,0,0L143,58.55l0,0,0,0,10.82-10.82,0,0,0,0,4.38-4.39q.06-.4.09-.81l-4.83,4.83Z"/><path class="cls-5" d="M148.14,63.6l0,0L137.28,74.45l0,0,0,0L126.39,85.35l0,0,0,0L115.49,96.24l0,0,0,0L104.6,107.14l0,0,0,0L93.7,118l0,0,0,0L82.81,128.93l0,0,0,0L71.91,139.82l0,0,0,0L61.71,150l1.22-.5,9.27-9.27,0,0,0,0,10.82-10.82,0,0,0,0L94,118.47l0,0,0,0,10.81-10.82,0,0,0,0,10.82-10.82,0,0,0,0,10.82-10.82,0,0,0,0,10.82-10.82,0,0,0,0L148.47,64l0,0,0,0,6.19-6.19c.12-.36.23-.71.34-1.07l-6.89,6.9Z"/><path class="cls-6" d="M150,65.41l0,0L139.06,76.31l0,0h0L128.17,87.2l0,0h0L117.31,98.06l0,0,0,0L106.41,109h0l0,0L95.52,119.85h0l0,0L84.62,130.74l0,0,0,0L73.73,141.64l0,0,0,0-6.12,6.12,1.07-.34L74,142.08l0,0,0,0,10.82-10.82,0,0,0,0,10.82-10.82h0l0,0,10.86-10.86h0l0,0L117.6,98.5l0,0,0,0,10.86-10.85,0,0h0l10.85-10.86,0,0h0l10.82-10.82,0,0,0,0,2.56-2.57c.13-.36.25-.73.38-1.1L150,65.37Z"/><path class="cls-7" d="M146.32,61.78l0,0L135.47,72.64h0l0,0L124.57,83.53h0l0,0L113.68,94.43l0,0,0,0-10.86,10.86,0,0h0L91.85,116.26l0,0h0L81,127.11l0,0,0,0L70.1,138l0,0,0,0L59.2,148.9l0,0,0,0-3.76,3.76,1.26-.53,2.87-2.87,0,0,0,0,10.82-10.82,0,0,0,0,10.82-10.82,0,0,0,0,10.86-10.86,0,0h0l10.86-10.86,0,0h0L114,94.87l0,0,0,0L124.86,84h0l0,0,10.85-10.85h0l0,0,10.86-10.86,0,0,0,0,9.6-9.6c.1-.34.19-.67.28-1L146.36,61.74Z"/><path class="cls-8" d="M140.88,78.12l0,0L130,89h0l0,0L119.12,99.88h0l0,0-10.9,10.9,0,0h0L97.3,121.7l0,0h0L86.44,132.56l0,0,0,0L75.54,143.46l0,0,0,0-2.8,2.8,1-.24,2.19-2.19,0,0,0,0L86.73,133l0,0,0,0,10.86-10.85,0,0h0l10.85-10.86,0,0h0l10.82-10.82h0l0,0,10.86-10.86h0l0,0L141.2,78.52l0,0,0,0L151,68.71c.12-.37.25-.74.38-1.11L140.92,78.08Z"/><path class="cls-9" d="M142.69,79.94l0,0L131.84,90.8l0,0,0,0-10.82,10.82,0,0,0,0L110,112.59l0,0,0,0L99.15,123.48l0,0,0,0L88.22,134.41l0,0h0L77.32,145.31h.07l.81-.14,10.38-10.38,0,0h0l10.82-10.82,0,0,0,0L110.33,113l0,0,0,0,10.82-10.82,0,0,0,0,10.82-10.82,0,0,0,0L143,80.34l0,0,0,0,6.08-6.07.36-1.09-6.8,6.8Z"/><path class="cls-10" d="M144.47,81.79h0L133.65,92.61l0,0,0,0-10.82,10.82,0,0,0,0L111.86,114.4l0,0,0,0L101,125.3h0l0,0L90.07,136.19h0l0,0-8.46,8.46.81-.08,8-8h0l0,0,10.85-10.85h0l0,0,10.86-10.86,0,0,0,0L123,104l0,0,0,0,10.82-10.82,0,0,0,0,10.86-10.85,0,0h0l2.61-2.61c.1-.34.2-.69.31-1l-3.32,3.31Z"/><path class="cls-11" d="M45,47.58h0L55.86,36.76l0,0h0l0,0,6-5.95-.69,0-5.66,5.66h0L44.64,47.25l0,0h0l-7.23,7.23-.06.28c-.05.21-.09.43-.14.64L45,47.62Z"/><path class="cls-12" d="M140.88,143.49l0,0L137,147.35c.53-.25,1-.52,1.54-.81l2.64-2.64,0,0,0,0,4.14-4.14c.25-.46.48-.94.69-1.42l-5.19,5.2Z"/><path class="cls-13" d="M139.06,141.68l0,0-7.54,7.54,1-.24,6.94-6.94,0,0,0,0,7.89-7.88c.05-.29.1-.58.14-.87l-8.39,8.39Z"/><path class="cls-14" d="M46.81,49.43l0,0L57.67,38.57l0,0,0,0,7.42-7.42L64.53,31l-7.15,7.14,0,0,0,0L46.49,49l0,0,0,0L36.48,59c-.06.3-.11.59-.16.89L46.78,49.47Z"/><path class="cls-15" d="M43.18,45.8l0,0L54,34.94l0,0,0,0,4.14-4.15-.79.07L53.75,34.5l0,0,0,0L42.86,45.4l0,0,0,0-4.11,4.11c-.1.35-.21.69-.31,1l4.78-4.78Z"/><path class="cls-16" d="M41.37,44l0,0L52.22,33.13l0,0,0,0,1.58-1.58q-.54.16-1.08.36l-.86.86,0,0,0,0L41,43.58l0,0h0q-.33.68-.63,1.35l.95-.95Z"/><path class="cls-17" d="M110.41,134.74h0l10.82-10.82,0,0,0,0L132.12,113l0,0,0,0L143,102.13l0,0,0,0,.71-.71c0-.24,0-.48,0-.73l-1.08,1.08,0,0,0,0-10.81,10.82,0,0,0,0-10.82,10.82,0,0,0,0L110,134.41l0,0h0L99.11,145.31l0,0h0l-.15.15.48.1.09,0h0l10.85-10.84Z"/><path class="cls-18" d="M134,136.59l0,0,10.82-10.82,0,0,0,0,2.34-2.34c0-.21-.07-.42-.1-.63l-2.6,2.61,0,0,0,0-10.82,10.82,0,0,0,0-10.82,10.82,0,0,0,0-2.7,2.71.56.06h.09l2.41-2.41,0,0,0,0,10.82-10.82Z"/><path class="cls-19" d="M115.86,140.19h0l10.82-10.82,0,0,0,0,10.82-10.82,0,0,0,0,7.12-7.13c0-.2-.07-.41-.11-.61L137.28,118l0,0,0,0-10.82,10.82,0,0,0,0-10.86,10.86,0,0h0l-7.64,7.63.59.15,7.45-7.45Z"/><path class="cls-20" d="M121.3,145.64h0l10.86-10.86,0,0h0L143,123.92l0,0,0,0,3.61-3.6c0-.2-.08-.4-.13-.6l-3.84,3.84,0,0,0,0L131.8,134.41l0,0h0L120.9,145.31l0,0h0l-4.09,4.09.63.1,3.87-3.87Z"/><path class="cls-21" d="M137.21,139.9h0l-10,10,.81-.08,9.63-9.62,0,0h0l10.11-10.11v-.74l-10.51,10.52Z"/><path class="cls-22" d="M135.75,138.45l0,0,10.86-10.86,0,0,0,0,.92-.93-.06-.66-1.23,1.22,0,0,0,0L135.47,138h0l0,0L124.57,148.9h0l0,0-1.13,1.13.72,0,.74-.75h0l0,0,10.85-10.85Z"/><path class="cls-23" d="M37.7,62.18l0,0L48.59,51.29l0,0,0,0L59.49,40.39l0,0,0,0,8.73-8.72-.62-.11L59.2,40l0,0,0,0L48.31,50.85l0,0,0,0L37.41,61.74h0l0,0-1.65,1.65-.15.87,2.13-2.12Z"/><path class="cls-24" d="M39.55,64l0,0L50.45,53.06l0,0h0L61.3,42.21l0,0,0,0,9.93-9.94-.6-.12L61,41.8,50.08,52.7l0,0h0L39.23,63.56l0,0,0,0L35,67.84c-.06.3-.12.59-.17.89L39.51,64Z"/><path class="cls-25" d="M41.37,65.77l0,0L52.22,54.92l0,0,0,0L63.12,44l0,0,0,0L74,33.13l0,0,0,0,.23-.23-.58-.12h0l0,0,0,0L62.83,43.58l0,0,0,0L51.94,54.48l0,0,0,0L41,65.37l0,0,0,0-7,7-.25,1,7.59-7.59Z"/><path class="cls-26" d="M36,82.08h0L46.81,71.22l0,0h0L57.67,60.36l0,0,0,0L68.57,49.47l0,0,0,0L79.46,38.57l0,0,0,0,4.28-4.28-.68,0-4,4,0,0,0,0L68.28,49l0,0,0,0L57.38,59.93l0,0,0,0L46.45,70.86l0,0h0L35.56,81.75l0,0h0l-7.73,7.73-.57,1.29,8.7-8.69Z"/><path class="cls-27" d="M112.19,136.59l0,0L123,125.74l0,0,0,0,10.82-10.82,0,0,0,0,9.91-9.91c0-.23,0-.45,0-.68L133.65,114.4l0,0,0,0L122.76,125.3l0,0,0,0-10.82,10.82,0,0,0,0-9.87,9.87.59.13,9.64-9.64Z"/><path class="cls-28" d="M108.55,133l0,0,10.82-10.82,0,0,0,0,10.82-10.82,0,0,0,0,10.82-10.82,0,0,0,0,2.66-2.67.06-.78-3.08,3.08,0,0,0,0L130,110.77l0,0,0,0-10.82,10.82,0,0,0,0-10.82,10.82,0,0,0,0L97.33,143.46l0,0,0,0L95.83,145l.63.1,1.16-1.16,0,0,0,0L108.52,133Z"/><path class="cls-29" d="M106.7,131.18h0l0,0,10.86-10.86,0,0,0,0,10.82-10.82,0,0,0,0L139.39,98.5l0,0,0,0,4.9-4.9c0-.28.07-.56.11-.84l-5.37,5.38,0,0,0,0L128.2,109l0,0,0,0-10.82,10.82,0,0,0,0-10.82,10.82h0l0,0L95.52,141.64h0l0,0-2.88,2.88.31,0,.35,0,2.55-2.54h0l0,0Z"/><path class="cls-30" d="M94.07,140.19h0l10.82-10.82,0,0,0,0,10.82-10.82,0,0,0,0,10.82-10.82,0,0,0,0,10.82-10.82,0,0,0,0,7.43-7.44c.06-.3.13-.61.19-.92l-8,8,0,0,0,0-10.82,10.82,0,0,0,0L115.49,118l0,0,0,0L104.6,128.93l0,0,0,0L93.66,139.86l0,0h0l-4.46,4.45.7,0L94,140.23Z"/><path class="cls-31" d="M119.41,143.9l0,0L130.31,133h0l0,0,10.89-10.89,0,0h0l4.77-4.78c0-.2-.08-.39-.13-.59l-5,5,0,0h0L130,132.56h0l0,0-10.86,10.86h0l0,0-5.39,5.39.61.12,5.1-5.11Z"/><path class="cls-32" d="M117.63,142l0,0,10.82-10.82,0,0,0,0,10.82-10.82,0,0,0,0,5.93-5.93c0-.2-.08-.39-.13-.59l-6.16,6.16,0,0,0,0L128.2,130.74l0,0,0,0-10.82,10.82,0,0,0,0-6.51,6.51.59.13,6.29-6.28Z"/><path class="cls-33" d="M114,138.41l0,0,10.82-10.82h0l0,0,10.89-10.89,8.47-8.46c0-.17-.06-.33-.08-.49s0-.1,0-.15l-8.7,8.7,0,0,0,0-10.82,10.82h0l0,0L113.68,138l0,0,0,0-8.74,8.75.58.14,8.52-8.52Z"/><path class="cls-34" d="M32.25,78.52l0,0L43.14,67.63l0,0,0,0L54,56.73l0,0,0,0L64.94,45.84l0,0,0,0L75.83,34.94l0,0,0,0,1.45-1.46-.61-.11-1.21,1.2,0,0,0,0L64.65,45.4l0,0,0,0L53.75,56.29l0,0,0,0L42.86,67.19l0,0,0,0L32.56,77.48c-.09.3-.2.61-.3.91l0,0a.5.5,0,0,1,0,.13l0,0Z"/><path class="cls-35" d="M34.1,80.3l0,0L45,69.44l0,0,0,0L55.86,58.55h0l0,0,10.9-10.89,10.89-10.9,0,0h0l2.78-2.77-.64-.09-2.54,2.54,0,0h0L66.46,47.21l0,0,0,0L55.57,58.11h0l0,0L44.67,69l0,0,0,0L33.78,79.9l0,0,0,0-3.23,3.23c-.16.4-.33.81-.49,1.22l4.09-4.09Z"/><path class="cls-36" d="M92.21,138.41l0,0,10.82-10.82,0,0,0,0L114,116.62l0,0h0l10.82-10.82,0,0,0,0,10.82-10.82h0l0,0,10.35-10.35c.07-.29.14-.58.22-.87l0-.06v0l0,0,0,0,0,0L135.47,94.43h0l0,0-10.9,10.89-10.89,10.9,0,0h0l-10.82,10.82,0,0,0,0L91.89,138l0,0,0,0-6.3,6.31.75,0,5.91-5.91Z"/><path class="cls-37" d="M26.8,94.87l0,0L37.7,84h0l0,0L48.59,73.08l0,0,0,0L59.49,62.18l0,0,0,0L70.38,51.29l0,0,0,0L81.28,40.39l0,0,0,0,5.91-5.9-.7,0L81,40l0,0,0,0L70.1,50.85l0,0,0,0L59.2,61.74l0,0,0,0L48.31,72.64l0,0,0,0L37.41,83.53h0l0,0L26.51,94.43h0l0,0L25,96l-.54,1.26,2.37-2.36Z"/><path class="cls-38" d="M28.66,96.64l0,0L39.51,85.79l0,0,0,0L50.41,74.89l0,0,0,0L61.3,64h0l0,0,10.9-10.9L83.13,42.17l0,0h0l7.62-7.62h-.71l-7.31,7.3,0,0h0L71.91,52.66l0,0,0,0L61,63.56h0l0,0L50.12,74.45l0,0,0,0L39.23,85.35l0,0,0,0L28.33,96.24l0,0,0,0L22.55,102c-.14.37-.27.74-.4,1.12l6.47-6.47Z"/><path class="cls-39" d="M30.47,98.46l0,0L41.37,87.56l0,0h0L52.26,76.67l0,0h0L63.12,65.81l0,0,0,0L74,54.92l0,0,0,0L84.91,44l0,0,0,0,9.43-9.44h-.73l-9.07,9.06,0,0,0,0L73.73,54.48l0,0,0,0L62.83,65.37l0,0,0,0L51.9,76.31l0,0h0L41,87.2l0,0h0L30.15,98.06l0,0,0,0-9.26,9.26-.27,1,9.89-9.89Z"/><path class="cls-40" d="M21.43,111.13h0l10.82-10.82h0l0,0L43.14,89.42l0,0,0,0L54,78.52l0,0,0,0L64.94,67.63l0,0,0,0L75.83,56.73l0,0,0,0L86.73,45.84l0,0,0,0L97.62,34.94l0,0,0,0,.48-.48-.77,0-.08.07,0,0,0,0L86.44,45.4l0,0,0,0L75.54,56.29l0,0,0,0L64.65,67.19l0,0,0,0L53.75,78.08l0,0,0,0L42.86,89l0,0,0,0L32,99.88h0l0,0L21,110.81l0,0h0l-1.28,1.27-.15.89,1.83-1.84Z"/><path class="cls-41" d="M25,114.8l0,0L35.88,104l0,0,0,0L46.78,93.05l0,0,0,0L57.71,82.12l0,0h0L68.6,71.22l0,0h0L79.46,60.36l0,0,0,0L90.36,49.47h0l0,0,10.85-10.86h0l0,0,4.78-4.78-.81.08L101,38.14h0l0,0L90.07,49h0l0,0L79.17,59.93l0,0,0,0L68.24,70.86l0,0h0L57.35,81.75l0,0h0L46.49,92.61l0,0,0,0L35.59,103.51l0,0,0,0L24.7,114.4l0,0,0,0-5.68,5.68c0,.25,0,.49,0,.73l6.06-6Z"/><path class="cls-42" d="M23.21,113l0,0,10.82-10.82,0,0,0,0L45,91.23l0,0,0,0L55.86,80.34h0l0,0L66.75,69.44h0l0,0L77.65,58.55l0,0,0,0L88.58,47.62l0,0h0L99.48,36.72l0,0h0l2.55-2.54-.79.06-2.16,2.16,0,0h0L88.22,47.25l0,0h0L77.36,58.11l0,0,0,0L66.46,69h0l0,0L55.57,79.9h0l0,0L44.67,90.8l0,0,0,0L33.78,101.69l0,0,0,0L22.88,112.59l0,0,0,0-3.67,3.67c0,.26-.05.53-.07.8l4.1-4.11Z"/><path class="cls-43" d="M28.66,118.43l0,0,10.82-10.82,0,0,0,0L50.41,96.68l0,0,0,0L61.3,85.79h0l0,0L72.2,74.89h0l0,0L83.09,64l0,0,0,0L94,53.06l0,0h0l10.86-10.86,0,0h0l9.64-9.64-.88.15-9.16,9.16,0,0h0L93.66,52.7l0,0h0L82.81,63.56l0,0,0,0L71.91,74.45h0l0,0L61,85.35h0l0,0L50.12,96.24l0,0,0,0L39.23,107.14l0,0,0,0L28.33,118l0,0,0,0L19.32,127c0,.22.05.43.08.65l9.22-9.22Z"/><path class="cls-44" d="M30.47,120.25l0,0,10.82-10.82,0,0,0,0L52.22,98.5l0,0,0,0L63.16,87.56l0,0h0L74.05,76.67l0,0h0L84.91,65.81l0,0,0,0L95.81,54.92h0l0,0L106.7,44h0l0,0L117.6,33.13l0,0,0,0,1.51-1.51-.94.22-.93.93,0,0,0,0L106.41,43.58h0l0,0L95.52,54.48h0l0,0L84.62,65.37l0,0,0,0L73.69,76.31l0,0h0L62.79,87.2l0,0h0L51.94,98.06l0,0,0,0L41,109l0,0,0,0L30.15,119.85l0,0,0,0L19.82,130.18l.12.6,10.49-10.49Z"/><path class="cls-45" d="M26.84,116.62l0,0L37.7,105.76l0,0,0,0L48.59,94.87l0,0,0,0L59.49,84l0,0,0,0L70.38,73.08l0,0,0,0L81.28,62.18l0,0,0,0L92.17,51.29l0,0,0,0,10.82-10.82,0,0,0,0,7.11-7.1-.86.13L102.78,40l0,0,0,0L91.89,50.85l0,0,0,0L81,61.74l0,0,0,0L70.1,72.64l0,0,0,0L59.2,83.53l0,0,0,0L48.31,94.43l0,0,0,0L37.41,105.32l0,0,0,0L26.51,116.22l0,0,0,0L19,123.72c0,.23,0,.45,0,.68l7.74-7.74Z"/><path class="cls-46" d="M23.25,134.74h0l10.82-10.82,0,0,0,0L45,113l0,0,0,0,10.82-10.82h0l0,0L66.75,91.23h0l0,0L77.65,80.34l0,0,0,0L88.54,69.44l0,0,0,0L99.44,58.55l0,0,0,0,10.86-10.85,0,0h0l10.86-10.86,0,0h0l7.84-7.83-1,.32-7.19,7.19,0,0h0L110,47.25l0,0h0L99.15,58.11l0,0,0,0L88.25,69l0,0,0,0L77.36,79.9l0,0,0,0L66.46,90.8h0l0,0L55.57,101.69h0l0,0L44.67,112.59l0,0,0,0L33.78,123.48l0,0,0,0L22.84,134.41l0,0h0L21.29,136l.18.54,1.74-1.73Z"/><path class="cls-47" d="M28.69,140.19h0l10.82-10.82,0,0,0,0,10.82-10.82,0,0,0,0L61.3,107.58h0l0,0L72.2,96.68h0l0,0L83.09,85.79l0,0,0,0L94,74.89l0,0,0,0L104.88,64l0,0,0,0,10.86-10.86,0,0h0l10.85-10.86,0,0h0l10.82-10.82,0,0,0,0,5.89-5.89-.76,0-5.5,5.49,0,0,0,0L126.35,41.8l0,0h0L115.45,52.7l0,0h0L104.6,63.56l0,0,0,0L93.7,74.45l0,0,0,0L82.81,85.35l0,0,0,0L71.91,96.24h0l0,0L61,107.14h0l0,0L50.12,118l0,0,0,0L39.23,128.93l0,0,0,0L28.29,139.86l0,0h0l-3.75,3.76.25.47,3.91-3.9Z"/><path class="cls-48" d="M34.14,145.64h0L45,134.78l0,0h0l10.82-10.82h0l0,0L66.75,113h0l0,0,10.86-10.86,0,0,0,0L88.54,91.23l0,0,0,0L99.44,80.34l0,0,0,0,10.82-10.82,0,0,0,0,10.82-10.82,0,0,0,0,10.86-10.85,0,0h0l10.86-10.86,0,0h0l9.33-9.32L152,27.1l-9.26,9.26,0,0h0L131.8,47.25l0,0h0L120.94,58.11l0,0,0,0L110,69l0,0,0,0L99.15,79.9l0,0,0,0L88.25,90.8l0,0,0,0L77.36,101.69l0,0,0,0L66.46,112.59h0l0,0L55.57,123.48h0l0,0L44.64,134.41l0,0h0L33.74,145.31l0,0h0l-4.79,4.79.35.37,4.84-4.84Z"/><path class="cls-49" d="M54.08,143.86l0,0L64.94,133l0,0,0,0,10.86-10.85,0,0h0l10.85-10.86,0,0h0l10.82-10.82,0,0,0,0,10.82-10.82,0,0,0,0,10.82-10.82h0l0,0,10.86-10.86h0l0,0L141.2,56.73l0,0,0,0L152.1,45.84l0,0,0,0,6.4-6.39,0-.7-6.73,6.73,0,0,0,0L140.92,56.29l0,0,0,0L130,67.19h0l0,0L119.12,78.08h0l0,0L108.23,89l0,0,0,0L97.33,99.87l0,0,0,0L86.4,110.81l0,0h0L75.51,121.7l0,0h0L64.65,132.56l0,0,0,0L53.75,143.46l0,0,0,0L42.86,154.35l0,0-1.77,1.76h.73l1.4-1.41,0,0L54,143.9Z"/><path class="cls-50" d="M39.59,151.08h0l10.86-10.85,0,0h0L61.3,129.37h0l0,0L72.2,118.47h0l0,0,10.85-10.85,0,0,0,0L94,96.68l0,0,0,0,10.81-10.82,0,0,0,0,10.82-10.82,0,0,0,0L126.68,64l0,0,0,0,10.86-10.86,0,0h0L148.5,42.17l0,0h0l8.89-8.89c-.07-.17-.15-.34-.22-.5l-9.07,9.06,0,0h0L137.25,52.7l0,0h0L126.39,63.56l0,0,0,0L115.49,74.45l0,0,0,0L104.6,85.35l0,0,0,0L93.7,96.24l0,0,0,0L82.81,107.14l0,0,0,0L71.91,118h0l0,0L61,128.93h0l0,0-10.9,10.89,0,0h0L39.19,150.76l0,0h0l-4,4,.52.2,3.89-3.89Z"/><path class="cls-51" d="M41.4,152.9l10.82-10.82,0,0,0,0,10.82-10.82,0,0,0,0L74,120.29l0,0,0,0,10.82-10.82,0,0,0,0L95.81,98.5h0l0,0,10.9-10.9,10.89-10.89,0,0h0l10.82-10.82,0,0,0,0,10.82-10.82,0,0,0,0L150.28,44l0,0,0,0,7.88-7.89c0-.2-.08-.4-.13-.59L150,43.58l0,0,0,0L139.1,54.48l0,0,0,0L128.2,65.37l0,0,0,0L117.27,76.31l0,0h0L106.41,87.16l0,0,0,0L95.52,98.06h0l0,0L84.62,109l0,0,0,0L73.73,119.85l0,0,0,0L62.83,130.74l0,0,0,0L51.94,141.64l0,0,0,0L41,152.54l0,0,0,0-3.11,3.11.61.11,2.9-2.89Z"/><path class="cls-52" d="M25,136.59l0,0,10.82-10.82,0,0,0,0,10.82-10.82,0,0,0,0L57.67,104l0,0,0,0L68.57,93.05l0,0,0,0L79.5,82.12l0,0h0L90.36,71.26l0,0,0,0,10.82-10.82h0l0,0,10.86-10.86,0,0,0,0L123,38.57l0,0,0,0,10.82-10.82,0,0,0,0,.5-.49-.75.23-.06,0-.25.08L122.76,38.13l0,0,0,0L111.86,49l0,0,0,0L101,59.93h0l0,0L90,70.86,79.14,81.75l0,0h0L68.28,92.61l0,0,0,0L57.38,103.51l0,0,0,0L46.49,114.4l0,0,0,0L35.59,125.3l0,0,0,0L24.7,136.19l0,0,0,0-2.38,2.38.2.53L25,136.63Z"/><path class="cls-53" d="M21.39,133l0,0L32.25,122.1l0,0,10.89-10.9,0,0h0L54,100.31l0,0,0,0L64.94,89.42l0,0,0,0L75.83,78.52l0,0,0,0L86.73,67.63l0,0,0,0L97.62,56.73l0,0,0,0,10.82-10.82,0,0,0,0,10.82-10.82h0l0,0L124,30.35l-1,.26-3.89,3.89h0l0,0L108.23,45.4l0,0,0,0L97.33,56.29l0,0,0,0L86.44,67.19l0,0,0,0L75.54,78.08l0,0,0,0L64.65,89l0,0,0,0L53.75,99.87l0,0,0,0L42.82,110.81l0,0h0L32,121.67l0,0L21.07,132.56l0,0,0,0-.51.51c.05.19.09.38.15.58l.72-.73Z"/><path class="cls-54" d="M32.25,143.9l0,0L43.14,133l0,0,0,0,10.86-10.85,0,0h0L65,111.17l0,0h0l10.82-10.82,0,0,0,0L86.73,89.42l0,0,0,0L97.62,78.52l0,0,0,0,10.82-10.82,0,0,0,0,10.82-10.82h0l0,0,10.86-10.85h0l0,0L141.2,34.94l0,0,0,0,8.64-8.65-.55-.17-8.45,8.45,0,0,0,0L130,45.4h0l0,0L119.12,56.29h0l0,0L108.23,67.19l0,0,0,0L97.33,78.08l0,0,0,0L86.44,89l0,0,0,0L75.54,99.87l0,0,0,0L64.61,110.81l0,0h0L53.71,121.7l0,0h0L42.86,132.56l0,0,0,0L32,143.46h0l0,0-4.64,4.65c.11.13.21.27.31.41l4.66-4.66Z"/><path class="cls-55" d="M26.8,138.45l0,0L37.7,127.55h0l0,0,10.89-10.89,0,0h0l10.86-10.86,0,0h0L70.38,94.87l0,0,0,0L81.28,84l0,0,0,0L92.17,73.08l0,0,0,0,10.82-10.82,0,0,0,0L114,51.29l0,0,0,0,10.82-10.82h0l0,0,10.85-10.86h0l0,0,3.62-3.62-.92.19-3,3h0l0,0L124.57,40h0l0,0L113.68,50.85l0,0,0,0L102.78,61.74l0,0,0,0L91.89,72.64l0,0,0,0L81,83.53l0,0,0,0L70.1,94.43l0,0,0,0L59.16,105.36l0,0h0L48.27,116.26l0,0h0L37.41,127.11h0l0,0L26.51,138h0l0,0-3.17,3.17c.07.16.15.33.23.49l3.26-3.26Z"/><path class="cls-56" d="M35.92,147.49l0,0,10.82-10.82,0,0,0,0,10.82-10.82,0,0,0,0,10.82-10.82,0,0,0,0L79.46,104l0,0,0,0L90.36,93.05h0l0,0,10.89-10.89,10.9-10.9,0,0h0L123,60.36l0,0,0,0,10.82-10.82,0,0,0,0,10.82-10.82,0,0,0,0,9.59-9.59-.38-.35-9.57,9.57,0,0,0,0L133.65,49l0,0,0,0L122.76,59.93l0,0,0,0L111.82,70.86l0,0h0L101,81.72l0,0,0,0L90.07,92.61h0l0,0L79.17,103.51l0,0,0,0L68.28,114.4l0,0,0,0L57.38,125.3l0,0,0,0L46.49,136.19l0,0,0,0L35.59,147.09l0,0,0,0-4.78,4.78.39.34,4.75-4.75Z"/><path class="cls-57" d="M30.47,142l0,0,10.82-10.82,0,0,0,0,10.82-10.82,0,0,0,0,10.82-10.82,0,0,0,0L74,98.5l0,0,0,0L85,87.56l0,0h0L95.81,76.71l0,0,0,0L106.7,65.81h0l0,0L117.6,54.92l0,0,0,0L128.49,44l0,0,0,0,10.82-10.82,0,0,0,0L147,25.53l-.64-.09-7.24,7.25,0,0,0,0L128.2,43.58l0,0,0,0L117.31,54.48l0,0,0,0L106.41,65.37h0l0,0-10.9,10.9L84.58,87.2l0,0h0L73.73,98.06l0,0,0,0L62.83,109l0,0,0,0L51.94,119.85l0,0,0,0L41,130.74l0,0,0,0L30.15,141.64l0,0,0,0L25.82,146c.09.15.18.3.28.44l4.33-4.33Z"/><path class="cls-58" d="M37.7,149.34l0,0,10.86-10.85,0,0,0,0,10.82-10.82,0,0,0,0,10.86-10.86,0,0h0l10.86-10.86,0,0h0L92.17,94.87l0,0,0,0L103.07,84l0,0,0,0L114,73.08l0,0,0,0,10.82-10.82h0l0,0,10.85-10.86h0l0,0,10.86-10.86,0,0,0,0,9.44-9.44-.3-.43L146.36,40l0,0,0,0L135.47,50.85h0l0,0L124.57,61.74h0l0,0L113.68,72.64l0,0,0,0L102.78,83.53l0,0,0,0L91.89,94.43l0,0,0,0L81,105.36l0,0h0L70.06,116.26l0,0h0L59.2,127.11l0,0,0,0L48.31,138l0,0,0,0L37.41,148.9h0l0,0-4.57,4.57.44.29,4.46-4.46Z"/></g><path class="cls-60" d="M17.88,52.76C9.36,69.93,11.08,91.14,20,108.09s24.45,29.84,41.71,38.15c11.56,5.56,24.52,9.28,37.18,7.25,22.33-3.59,38-23.67,49-43.46,3.2-5.77,6.26-11.83,7-18.39S153.5,77.83,148.13,74C144,71,138.68,70.49,134,68.5c-9.27-4-15.08-13.13-19.83-22-11-20.56-23.73-34.07-48.14-25.21C47.19,28.13,27.57,33.23,17.88,52.76Z"/><path class="cls-61" d="M134,68.5c-9.27-4-15.08-13.13-19.83-22-4.55-8.52-9.41-15.82-15.27-20.83C89.66,34.42,79.87,43,67.8,46.87,59.16,49.64,49.93,49.78,41,51.14A45.82,45.82,0,0,0,13.49,65.66C10.6,79.83,13.22,95.19,20,108.09c9,17,24.45,29.84,41.71,38.15,11.56,5.56,24.52,9.28,37.18,7.25,11.47-1.84,21.18-8,29.41-16.31,6-11.49,7.31-25,7.46-38,.11-10-.37-20,.31-29.94C135.39,69,134.7,68.79,134,68.5Z"/><path class="cls-62" d="M90.66,169.2c-2.83-.32-6.17-.95-8.11,1.13-1.64,1.76-1.25,4.72.22,6.63,2.31,3,6.54,3.9,10.29,3.43s7.27-2.06,10.9-3.15c2.33-.7,4.73-1.21,7-2.14a11.53,11.53,0,0,0,5.67-4.41,6.41,6.41,0,0,0,0-6.9c-3.36-4.65-7.61.54-10.73,2.29A25.48,25.48,0,0,1,90.66,169.2Z"/><path class="cls-63" d="M88.1,10.89c2.18.79,4.24,2,6.54,2.26s5-.82,5.56-3.07c.59-2.41-1.5-4.61-3.58-5.95A26.3,26.3,0,0,0,77.35.51a12,12,0,0,0-5,2C69.2,5,69,10.08,73.32,10.9c2,.36,4.39-.83,6.31-1A19,19,0,0,1,88.1,10.89Z"/><path class="cls-64" d="M2.65,51.7a16.4,16.4,0,0,0-2.47,5,5.55,5.55,0,0,0,1.19,5.2c1.9,1.86,5.39,1.29,7-.81a7.36,7.36,0,0,0,.46-7.57,5.37,5.37,0,0,0-2.71-2.8,2.88,2.88,0,0,0-3.5,1.07"/><path class="cls-65" d="M169,75.77a4.32,4.32,0,1,1-4.32-4.32A4.31,4.31,0,0,1,169,75.77Z"/><path class="cls-66" d="M5.57,133.35A2.33,2.33,0,1,1,3.24,131,2.33,2.33,0,0,1,5.57,133.35Z"/><path class="cls-67" d="M157.84,110.68a182.37,182.37,0,0,0-14.73-12.75c-10-8.08-20.41-16.43-25.83-28.12-2.66-5.74-4-12.08-5.28-18.21-.83-3.94-1.68-8-2.89-11.93C105.32,27.37,97.71,19,88.75,17.26c-4.37-.83-8.81-.11-13.12.59a53.76,53.76,0,0,1-9.1,1,54,54,0,0,1-9.12-1.14c-4.24-.77-8.62-1.58-12.95-.87-6.24,1-12.17,5.23-16.28,11.55-3.85,5.93-5.7,12.83-7,18.82.42-.61.86-1.21,1.31-1.79C23.76,40,25.57,34,28.93,28.85c4-6.12,9.68-10.19,15.67-11.16,4.18-.68,8.48.11,12.64.87a55.39,55.39,0,0,0,9.28,1.15,53,53,0,0,0,9.26-1c4.22-.69,8.59-1.4,12.8-.59,8.63,1.66,16,9.81,19.68,21.79,1.19,3.87,2,7.93,2.87,11.85,1.3,6.18,2.64,12.57,5.35,18.41,5.5,11.87,16,20.29,26.07,28.43a181.17,181.17,0,0,1,14.66,12.69c7.37,7.38,10.72,14.49,9.94,21.12C166,142.61,155.5,148.8,146.9,151a52.5,52.5,0,0,1-28.56-.8l-.78.7a53.87,53.87,0,0,0,16.52,2.6,52.33,52.33,0,0,0,13-1.64c8.86-2.28,19.66-8.71,20.9-19.34C168.84,125.62,165.42,118.26,157.84,110.68Z"/><path class="cls-68" d="M157.84,110.68a182.37,182.37,0,0,0-14.73-12.75c-10-8.08-20.41-16.43-25.83-28.12-2.66-5.74-4-12.08-5.28-18.21-.83-3.94-1.68-8-2.89-11.93C105.32,27.37,97.71,19,88.75,17.26c-4.37-.83-8.81-.11-13.12.59a53.76,53.76,0,0,1-9.1,1,54,54,0,0,1-9.12-1.14c-4.24-.77-8.62-1.58-12.95-.87-6.24,1-12.17,5.23-16.28,11.55-3.85,5.93-5.7,12.83-7,18.82.42-.61.86-1.21,1.31-1.79C23.76,40,25.57,34,28.93,28.85c4-6.12,9.68-10.19,15.67-11.16,4.18-.68,8.48.11,12.64.87a55.39,55.39,0,0,0,9.28,1.15,53,53,0,0,0,9.26-1c4.22-.69,8.59-1.4,12.8-.59,8.63,1.66,16,9.81,19.68,21.79,1.19,3.87,2,7.93,2.87,11.85,1.3,6.18,2.64,12.57,5.35,18.41,5.5,11.87,16,20.29,26.07,28.43a181.17,181.17,0,0,1,14.66,12.69c7.37,7.38,10.72,14.49,9.94,21.12C166,142.61,155.5,148.8,146.9,151a52.5,52.5,0,0,1-28.56-.8l-.78.7a53.87,53.87,0,0,0,16.52,2.6,52.33,52.33,0,0,0,13-1.64c8.86-2.28,19.66-8.71,20.9-19.34C168.84,125.62,165.42,118.26,157.84,110.68Z"/></g></g></g></svg>